<?xml version="1.0" encoding="UTF-8"?>
<svg xmlns="http://www.w3.org/2000/svg" xmlns:xlink="http://www.w3.org/1999/xlink" width="1920" height="1080" viewBox="0 0 1920 1080">
<defs>
<g>
<g id="glyph-0-0">
<path d="M 0.515625 0 L 0.515625 -0.484375 L 1.390625 -0.484375 L 1.390625 -6.390625 L 0.515625 -6.390625 L 0.515625 -6.875 L 3.203125 -6.875 L 3.203125 -6.390625 L 2.328125 -6.390625 L 2.328125 -4.015625 L 5.90625 -4.015625 L 5.90625 -6.390625 L 5.015625 -6.390625 L 5.015625 -6.875 L 7.703125 -6.875 L 7.703125 -6.390625 L 6.828125 -6.390625 L 6.828125 -0.484375 L 7.703125 -0.484375 L 7.703125 0 L 5.015625 0 L 5.015625 -0.484375 L 5.90625 -0.484375 L 5.90625 -3.453125 L 2.328125 -3.453125 L 2.328125 -0.484375 L 3.203125 -0.484375 L 3.203125 0 Z "/>
</g>
<g id="glyph-0-1">
<path d="M 3.875 -0.359375 C 4.625 -0.359375 5.191406 -0.613281 5.578125 -1.125 C 5.960938 -1.644531 6.15625 -2.414062 6.15625 -3.4375 C 6.15625 -4.445312 5.960938 -5.210938 5.578125 -5.734375 C 5.191406 -6.253906 4.625 -6.515625 3.875 -6.515625 C 3.113281 -6.515625 2.539062 -6.253906 2.15625 -5.734375 C 1.769531 -5.210938 1.578125 -4.445312 1.578125 -3.4375 C 1.578125 -2.414062 1.769531 -1.644531 2.15625 -1.125 C 2.539062 -0.613281 3.113281 -0.359375 3.875 -0.359375 Z M 3.875 0.140625 C 3.40625 0.140625 2.972656 0.0585938 2.578125 -0.09375 C 2.191406 -0.25 1.847656 -0.476562 1.546875 -0.78125 C 1.203125 -1.125 0.945312 -1.507812 0.78125 -1.9375 C 0.613281 -2.375 0.53125 -2.875 0.53125 -3.4375 C 0.53125 -3.988281 0.613281 -4.484375 0.78125 -4.921875 C 0.945312 -5.359375 1.203125 -5.75 1.546875 -6.09375 C 1.847656 -6.394531 2.191406 -6.617188 2.578125 -6.765625 C 2.960938 -6.921875 3.394531 -7 3.875 -7 C 4.875 -7 5.679688 -6.671875 6.296875 -6.015625 C 6.910156 -5.367188 7.21875 -4.507812 7.21875 -3.4375 C 7.21875 -2.882812 7.128906 -2.382812 6.953125 -1.9375 C 6.785156 -1.5 6.53125 -1.113281 6.1875 -0.78125 C 5.882812 -0.476562 5.539062 -0.25 5.15625 -0.09375 C 4.769531 0.0585938 4.34375 0.140625 3.875 0.140625 Z "/>
</g>
<g id="glyph-0-2">
<path d="M 7.1875 0 L 6.4375 0 L 4.859375 -5.59375 L 3.28125 0 L 2.53125 0 L 0.734375 -6.390625 L 0.046875 -6.390625 L 0.046875 -6.875 L 2.5625 -6.875 L 2.5625 -6.390625 L 1.703125 -6.390625 L 3.140625 -1.296875 L 4.703125 -6.875 L 5.453125 -6.875 L 7.046875 -1.25 L 8.484375 -6.390625 L 7.6875 -6.390625 L 7.6875 -6.875 L 9.671875 -6.875 L 9.671875 -6.390625 L 9 -6.390625 Z "/>
</g>
<g id="glyph-0-3">
</g>
<g id="glyph-0-4">
<path d="M 2.328125 -0.484375 L 3.703125 -0.484375 C 4.253906 -0.484375 4.65625 -0.601562 4.90625 -0.84375 C 5.164062 -1.082031 5.296875 -1.460938 5.296875 -1.984375 C 5.296875 -2.503906 5.171875 -2.882812 4.921875 -3.125 C 4.671875 -3.363281 4.265625 -3.484375 3.703125 -3.484375 L 2.328125 -3.484375 Z M 2.328125 -3.96875 L 3.5 -3.96875 C 4.007812 -3.96875 4.378906 -4.0625 4.609375 -4.25 C 4.835938 -4.445312 4.953125 -4.753906 4.953125 -5.171875 C 4.953125 -5.597656 4.835938 -5.90625 4.609375 -6.09375 C 4.378906 -6.289062 4.007812 -6.390625 3.5 -6.390625 L 2.328125 -6.390625 Z M 0.515625 0 L 0.515625 -0.484375 L 1.390625 -0.484375 L 1.390625 -6.390625 L 0.515625 -6.390625 L 0.515625 -6.875 L 3.921875 -6.875 C 4.609375 -6.875 5.128906 -6.734375 5.484375 -6.453125 C 5.835938 -6.171875 6.015625 -5.742188 6.015625 -5.171875 C 6.015625 -4.765625 5.890625 -4.441406 5.640625 -4.203125 C 5.398438 -3.960938 5.046875 -3.8125 4.578125 -3.75 C 5.160156 -3.675781 5.601562 -3.488281 5.90625 -3.1875 C 6.207031 -2.894531 6.359375 -2.492188 6.359375 -1.984375 C 6.359375 -1.304688 6.140625 -0.804688 5.703125 -0.484375 C 5.273438 -0.160156 4.609375 0 3.703125 0 Z "/>
</g>
<g id="glyph-0-5">
<path d="M 2.328125 -0.484375 L 3.203125 -0.484375 L 3.203125 0 L 0.515625 0 L 0.515625 -0.484375 L 1.390625 -0.484375 L 1.390625 -6.390625 L 0.515625 -6.390625 L 0.515625 -6.875 L 3.203125 -6.875 L 3.203125 -6.390625 L 2.328125 -6.390625 Z "/>
</g>
<g id="glyph-0-6">
<path d="M 6.046875 -4.828125 C 5.929688 -5.398438 5.703125 -5.820312 5.359375 -6.09375 C 5.023438 -6.375 4.550781 -6.515625 3.9375 -6.515625 C 3.144531 -6.515625 2.550781 -6.257812 2.15625 -5.75 C 1.769531 -5.238281 1.578125 -4.46875 1.578125 -3.4375 C 1.578125 -2.425781 1.78125 -1.660156 2.1875 -1.140625 C 2.59375 -0.617188 3.1875 -0.359375 3.96875 -0.359375 C 4.3125 -0.359375 4.640625 -0.398438 4.953125 -0.484375 C 5.273438 -0.578125 5.578125 -0.707031 5.859375 -0.875 L 5.859375 -2.65625 L 4.5625 -2.65625 L 4.5625 -3.140625 L 6.796875 -3.140625 L 6.796875 -0.578125 C 6.390625 -0.335938 5.945312 -0.15625 5.46875 -0.03125 C 5 0.0820312 4.5 0.140625 3.96875 0.140625 C 2.925781 0.140625 2.09375 -0.179688 1.46875 -0.828125 C 0.84375 -1.484375 0.53125 -2.351562 0.53125 -3.4375 C 0.53125 -4.519531 0.84375 -5.382812 1.46875 -6.03125 C 2.09375 -6.675781 2.9375 -7 4 -7 C 4.394531 -7 4.800781 -6.953125 5.21875 -6.859375 C 5.632812 -6.773438 6.082031 -6.640625 6.5625 -6.453125 L 6.5625 -4.828125 Z "/>
</g>
<g id="glyph-0-7">
<path d="M 0.875 -0.328125 L 0.875 -1.90625 L 1.40625 -1.890625 C 1.414062 -1.367188 1.566406 -0.984375 1.859375 -0.734375 C 2.148438 -0.484375 2.585938 -0.359375 3.171875 -0.359375 C 3.710938 -0.359375 4.128906 -0.46875 4.421875 -0.6875 C 4.710938 -0.90625 4.859375 -1.21875 4.859375 -1.625 C 4.859375 -1.957031 4.769531 -2.210938 4.59375 -2.390625 C 4.414062 -2.566406 4.050781 -2.742188 3.5 -2.921875 L 2.578125 -3.1875 C 1.921875 -3.382812 1.457031 -3.628906 1.1875 -3.921875 C 0.925781 -4.222656 0.796875 -4.632812 0.796875 -5.15625 C 0.796875 -5.738281 1 -6.191406 1.40625 -6.515625 C 1.820312 -6.835938 2.40625 -7 3.15625 -7 C 3.476562 -7 3.828125 -6.960938 4.203125 -6.890625 C 4.585938 -6.828125 4.992188 -6.726562 5.421875 -6.59375 L 5.421875 -5.140625 L 4.90625 -5.140625 C 4.851562 -5.617188 4.691406 -5.96875 4.421875 -6.1875 C 4.148438 -6.40625 3.734375 -6.515625 3.171875 -6.515625 C 2.691406 -6.515625 2.320312 -6.414062 2.0625 -6.21875 C 1.8125 -6.019531 1.6875 -5.726562 1.6875 -5.34375 C 1.6875 -5.019531 1.78125 -4.765625 1.96875 -4.578125 C 2.164062 -4.390625 2.570312 -4.203125 3.1875 -4.015625 L 4.046875 -3.765625 C 4.671875 -3.578125 5.113281 -3.335938 5.375 -3.046875 C 5.644531 -2.753906 5.78125 -2.363281 5.78125 -1.875 C 5.78125 -1.207031 5.566406 -0.703125 5.140625 -0.359375 C 4.710938 -0.0234375 4.070312 0.140625 3.21875 0.140625 C 2.84375 0.140625 2.457031 0.0976562 2.0625 0.015625 C 1.675781 -0.0546875 1.28125 -0.171875 0.875 -0.328125 Z "/>
</g>
<g id="glyph-0-8">
<path d="M 1.796875 0 L 1.796875 -0.484375 L 2.6875 -0.484375 L 2.6875 -6.328125 L 0.65625 -6.328125 L 0.65625 -5.265625 L 0.09375 -5.265625 L 0.09375 -6.875 L 6.203125 -6.875 L 6.203125 -5.265625 L 5.640625 -5.265625 L 5.640625 -6.328125 L 3.609375 -6.328125 L 3.609375 -0.484375 L 4.5 -0.484375 L 4.5 0 Z "/>
</g>
<g id="glyph-0-9">
<path d="M 0.515625 0 L 0.515625 -0.484375 L 1.390625 -0.484375 L 1.390625 -6.390625 L 0.515625 -6.390625 L 0.515625 -6.875 L 6.0625 -6.875 L 6.0625 -5.34375 L 5.5 -5.34375 L 5.5 -6.3125 L 2.328125 -6.3125 L 2.328125 -4.015625 L 4.578125 -4.015625 L 4.578125 -4.875 L 5.15625 -4.875 L 5.15625 -2.578125 L 4.578125 -2.578125 L 4.578125 -3.453125 L 2.328125 -3.453125 L 2.328125 -0.5625 L 5.5625 -0.5625 L 5.5625 -1.53125 L 6.140625 -1.53125 L 6.140625 0 Z "/>
</g>
<g id="glyph-0-10">
<path d="M 1.328125 -6.390625 L 0.4375 -6.390625 L 0.4375 -6.875 L 3.140625 -6.875 L 3.140625 -6.390625 L 2.25 -6.390625 L 2.25 -2.828125 C 2.25 -1.953125 2.390625 -1.335938 2.671875 -0.984375 C 2.960938 -0.640625 3.460938 -0.46875 4.171875 -0.46875 C 4.867188 -0.46875 5.363281 -0.640625 5.65625 -0.984375 C 5.945312 -1.335938 6.09375 -1.953125 6.09375 -2.828125 L 6.09375 -6.390625 L 5.203125 -6.390625 L 5.203125 -6.875 L 7.53125 -6.875 L 7.53125 -6.390625 L 6.65625 -6.390625 L 6.65625 -2.734375 C 6.65625 -1.691406 6.453125 -0.953125 6.046875 -0.515625 C 5.648438 -0.078125 4.96875 0.140625 4 0.140625 C 3.03125 0.140625 2.34375 -0.078125 1.9375 -0.515625 C 1.53125 -0.953125 1.328125 -1.691406 1.328125 -2.734375 Z "/>
</g>
<g id="glyph-0-11">
<path d="M 0.453125 0 L 0.453125 -0.484375 L 1.390625 -0.484375 L 1.390625 -6.390625 L 0.453125 -6.390625 L 0.453125 -6.875 L 2.21875 -6.875 L 6.34375 -1.453125 L 6.34375 -6.390625 L 5.421875 -6.390625 L 5.421875 -6.875 L 7.84375 -6.875 L 7.84375 -6.390625 L 6.921875 -6.390625 L 6.921875 0.140625 L 6.359375 0.140625 L 1.953125 -5.65625 L 1.953125 -0.484375 L 2.875 -0.484375 L 2.875 0 Z "/>
</g>
<g id="glyph-0-12">
<path d="M 1.65625 -0.484375 C 1.65625 -0.648438 1.710938 -0.789062 1.828125 -0.90625 C 1.953125 -1.03125 2.101562 -1.09375 2.28125 -1.09375 C 2.445312 -1.09375 2.585938 -1.03125 2.703125 -0.90625 C 2.828125 -0.789062 2.890625 -0.648438 2.890625 -0.484375 C 2.890625 -0.304688 2.828125 -0.15625 2.703125 -0.03125 C 2.585938 0.0820312 2.445312 0.140625 2.28125 0.140625 C 2.101562 0.140625 1.953125 0.0820312 1.828125 -0.03125 C 1.710938 -0.15625 1.65625 -0.304688 1.65625 -0.484375 Z M 0.640625 -6.578125 C 0.960938 -6.722656 1.269531 -6.828125 1.5625 -6.890625 C 1.863281 -6.960938 2.140625 -7 2.390625 -7 C 3.078125 -7 3.617188 -6.832031 4.015625 -6.5 C 4.410156 -6.175781 4.609375 -5.734375 4.609375 -5.171875 C 4.609375 -4.609375 4.4375 -4.144531 4.09375 -3.78125 C 3.75 -3.414062 3.238281 -3.15625 2.5625 -3 L 2.5625 -1.828125 L 1.984375 -1.828125 L 1.984375 -3.34375 C 2.535156 -3.476562 2.945312 -3.695312 3.21875 -4 C 3.488281 -4.3125 3.625 -4.707031 3.625 -5.1875 C 3.625 -5.601562 3.507812 -5.929688 3.28125 -6.171875 C 3.0625 -6.421875 2.757812 -6.546875 2.375 -6.546875 C 2.03125 -6.546875 1.742188 -6.441406 1.515625 -6.234375 C 1.296875 -6.035156 1.15625 -5.75 1.09375 -5.375 L 0.640625 -5.375 Z "/>
</g>
</g>
</defs>
<g fill="rgb(89.803922%, 90.588235%, 92.156863%)" fill-opacity="1">
<use xlink:href="#glyph-0-0" x="30" y="28.766602"/>
<use xlink:href="#glyph-0-1" x="38" y="28.766602"/>
<use xlink:href="#glyph-0-2" x="46" y="28.766602"/>
<use xlink:href="#glyph-0-3" x="56" y="28.766602"/>
<use xlink:href="#glyph-0-4" x="59" y="28.766602"/>
<use xlink:href="#glyph-0-5" x="66" y="28.766602"/>
<use xlink:href="#glyph-0-6" x="70" y="28.766602"/>
<use xlink:href="#glyph-0-3" x="78" y="28.766602"/>
<use xlink:href="#glyph-0-5" x="81" y="28.766602"/>
<use xlink:href="#glyph-0-7" x="85" y="28.766602"/>
<use xlink:href="#glyph-0-3" x="91" y="28.766602"/>
<use xlink:href="#glyph-0-8" x="94" y="28.766602"/>
<use xlink:href="#glyph-0-0" x="100" y="28.766602"/>
<use xlink:href="#glyph-0-9" x="108" y="28.766602"/>
<use xlink:href="#glyph-0-3" x="115" y="28.766602"/>
<use xlink:href="#glyph-0-7" x="118" y="28.766602"/>
<use xlink:href="#glyph-0-10" x="124" y="28.766602"/>
<use xlink:href="#glyph-0-11" x="132" y="28.766602"/>
<use xlink:href="#glyph-0-12" x="140" y="28.766602"/>
</g>
</svg>
